<?xml version="1.0" encoding="UTF-8"?>
<svg id="Capa_2" data-name="Capa 2" xmlns="http://www.w3.org/2000/svg" viewBox="0 0 552.22 336.49">
  <g id="Capa_1-2" data-name="Capa 1">
    <g>
      <polygon points="342.94 125.09 261.63 149.63 180.32 125.09 180.32 0 342.94 0 342.94 125.09" fill="#f6f6f6"/>
      <path d="M249.65,69.13c6.03,3.54,12.21,5.29,18.83,5.36,6.85.07,13.27-1.69,19.54-5.35-11.74-7.23-26.41-7.24-38.37,0" fill="#244e9d"/>
      <path d="M235.82,69.16c10.39,8.04,21.02,12.03,32.43,12.17.21,0,.42,0,.63,0,11.57,0,22.37-3.98,32.97-12.14-9.55-7.83-20.65-12.06-32.2-12.25-11.97-.19-23.63,4.02-33.83,12.23M292.66,69.21l-1.6,1.02c-7.11,4.56-14.38,6.78-22.2,6.78-.14,0-.27,0-.41,0-7.73-.08-14.88-2.3-21.86-6.8l-1.61-1.03,1.58-1.07c13.66-9.24,31.13-9.23,44.53.03l1.56,1.08Z" fill="#244e9d"/>
      <path d="M208.06,58.52v21.26c2.38-1.52,4.72-3.18,7.2-4.94,1.2-.85,2.37-1.69,3.56-2.51l3.81-2.65-4.69-4.05c-3.02-2.79-6.47-5.08-9.88-7.11" fill="#244e9d"/>
      <path d="M280.44,50.95c-3.44-.75-6.06-2.57-8.02-5.57-2.48-3.78-5.56-6.39-9.37-7.93v12.14l-6.14,1.41c-10.4,2.39-19.71,7.22-28.47,14.77l-4.12,3.8,3.86,2.99c.44.34.9.7,1.37,1.07,1.02.8,2.04,1.6,3.05,2.35,7.37,5.42,14.89,9.02,23,11.02,4.6,1.13,7.41,4.81,7.33,9.58,0,.25,0,.5,0,.74,2.94-1.2,5.55-3.12,7.94-5.81.98-1.1,3.09-3.03,6.22-3.56,13.32-2.26,25.03-8.42,35.75-18.83-.28-.28-.56-.55-.85-.82-9.58-9.14-19.9-14.81-31.54-17.36M305.05,70.35c-11.57,9.33-23.41,13.88-36.17,13.88-.22,0-.44,0-.67,0-12.61-.16-24.26-4.71-35.62-13.92l-1.36-1.1,1.33-1.13c11.06-9.41,23.92-14.25,37.13-14.05,12.78.21,25.02,5.09,35.39,14.1l1.31,1.14-1.35,1.09Z" fill="#244e9d"/>
      <path d="M316.45,63.64c-10.46-9.98-21.79-16.19-34.63-19-1.77-.39-2.97-1.22-4-2.8-4.81-7.34-11.78-11.5-20.72-12.37-.16-.01-.33-.02-.51-.02v15l-1.13.26c-11.45,2.63-21.67,7.92-31.24,16.18l-.98.85-.95-.88c-5.03-4.64-10.8-7.89-16.91-11.32-1.24-.7-2.51-1.41-3.77-2.14v43.62c.53-.3,1.06-.59,1.58-.89,2.81-1.57,5.47-3.06,8.07-4.71,2.61-1.66,5.11-3.43,7.74-5.3,1.16-.83,2.33-1.65,3.51-2.48l.88-.61.84.65c.42.33.87.68,1.32,1.03,1.04.82,2.12,1.67,3.23,2.48,7.95,5.85,16.46,9.92,25.28,12.09,2.21.54,2.44,2.09,2.42,3.2-.04,2.4-.03,4.82-.03,7.37,0,.49,0,.98,0,1.49l.56-.07c1.54-.19,2.99-.36,4.38-.69,5.46-1.28,10.27-4.23,14.3-8.77.26-.29,1.21-1.27,2.46-1.48,15.19-2.57,28.41-9.71,40.42-21.8l3.34-3.35c-.36-.37-.72-.74-1.07-1.11-1.43-1.47-2.9-3-4.4-4.42M315.92,70.16c-11.44,11.46-23.98,18.22-38.35,20.66-2.25.38-3.81,1.81-4.53,2.63-3.26,3.68-6.91,6.07-11.17,7.33l-1.87.55v-1.95c.01-.96.02-1.9.03-2.84.06-3.45-1.81-5.9-5.13-6.72-8.48-2.09-16.34-5.85-24.03-11.5-1.05-.77-2.09-1.59-3.1-2.38-.49-.39-.94-.74-1.38-1.08l-2.91-2.25-3.02,2.1c-1.18.82-2.34,1.65-3.5,2.47-2.64,1.87-5.09,3.62-7.63,5.22-.66.42-1.32.82-1.99,1.23l-2.2,1.32v-31.46l2.18,1.25c4.24,2.44,8.69,5.19,12.53,8.74l3.51,3.03,3.13-2.89c9.16-7.9,18.88-12.94,29.75-15.43l3.89-.89v-13.82l1.86.55c5.38,1.6,9.58,4.8,12.83,9.77,1.52,2.33,3.56,3.74,6.22,4.32,12.18,2.66,22.95,8.58,32.93,18.09.65.62,1.29,1.26,1.93,1.9l1.02,1.02-1.02,1.02Z" fill="#244e9d"/>
      <g>
        <path d="M55.15,230.94c0,6.96-1.6,12.24-4.8,15.81-3.2,3.58-7.82,5.36-13.86,5.36s-10.82-1.81-14.06-5.43c-3.25-3.62-4.87-8.86-4.87-15.74v-44.98H0v45.54c0,7.33,1.44,13.67,4.32,19.01,2.88,5.34,7.03,9.43,12.46,12.26,5.43,2.83,11.95,4.25,19.57,4.25s14.11-1.41,19.5-4.25c5.38-2.83,9.49-6.91,12.32-12.26,2.83-5.34,4.25-11.67,4.25-19.01v-45.54h-17.27v44.98Z" fill="#f6f6f6"/>
        <polygon points="167.11 185.96 149.29 185.96 126.31 223.41 103.33 185.96 84.67 185.96 116.98 239.22 116.98 265.62 134.67 265.62 134.67 239.45 167.11 185.96" fill="#f6f6f6"/>
        <polygon points="179.31 200.3 205.49 200.3 205.49 265.61 223.04 265.61 223.04 200.3 249.22 200.3 249.22 185.96 179.31 185.96 179.31 200.3" fill="#f6f6f6"/>
        <path d="M318.99,230.94c0,6.96-1.6,12.24-4.8,15.81-3.2,3.58-7.82,5.36-13.86,5.36s-10.82-1.81-14.06-5.43c-3.25-3.62-4.87-8.86-4.87-15.74v-44.98h-17.55v45.54c0,7.33,1.44,13.67,4.32,19.01,2.88,5.34,7.03,9.43,12.46,12.26,5.43,2.83,11.95,4.25,19.57,4.25s14.11-1.41,19.5-4.25c5.38-2.83,9.49-6.91,12.32-12.26,2.83-5.34,4.25-11.67,4.25-19.01v-45.54h-17.27v44.98Z" fill="#f6f6f6"/>
        <polygon points="408.84 236.24 367.34 185.96 352.86 185.96 352.86 265.62 370.4 265.62 370.4 215.5 411.76 265.62 426.25 265.62 426.25 185.96 408.84 185.96 408.84 236.24" fill="#f6f6f6"/>
        <path d="M512.73,265.62h17.41l-36.07-79.66h-17.41l-36.21,79.66h17.13l7.48-17.27h40.26l7.41,17.27ZM470.85,234.98l14.43-33.32,14.3,33.32h-28.73Z" fill="#f6f6f6"/>
        <path d="M100.22,305.3c-.7,0-1.28-.23-1.74-.68-.46-.45-.69-1-.69-1.65s.23-1.24.69-1.69c.46-.45,1.04-.67,1.74-.67s1.28.22,1.74.65c.46.44.69.98.69,1.63s-.22,1.24-.68,1.7c-.45.47-1.04.7-1.76.7M98.42,309.13h3.6v19.87h-3.6v-19.87Z" fill="#f6f6f6"/>
        <path d="M118.74,308.93c1.62,0,3.05.31,4.29.94,1.24.63,2.21,1.57,2.9,2.85.7,1.28,1.05,2.89,1.05,4.84v11.43h-3.6v-11.02c0-1.92-.47-3.37-1.4-4.35-.94-.97-2.26-1.46-3.96-1.46-1.28,0-2.39.25-3.34.75-.95.5-1.68,1.24-2.19,2.21-.51.97-.77,2.19-.77,3.64v10.23h-3.6v-19.86h3.45v5.36l-.56-1.42c.65-1.3,1.65-2.31,3-3.04,1.35-.72,2.92-1.09,4.72-1.09" fill="#f6f6f6"/>
        <path d="M143.51,308.93c1.62,0,3.05.31,4.29.94,1.24.63,2.21,1.57,2.9,2.85.7,1.28,1.05,2.89,1.05,4.84v11.43h-3.6v-11.02c0-1.92-.47-3.37-1.4-4.35-.94-.97-2.26-1.46-3.96-1.46-1.28,0-2.39.25-3.34.75-.95.5-1.68,1.24-2.19,2.21-.51.97-.77,2.19-.77,3.64v10.23h-3.6v-19.86h3.45v5.36l-.56-1.42c.65-1.3,1.65-2.31,3-3.04,1.35-.72,2.92-1.09,4.72-1.09" fill="#f6f6f6"/>
        <path d="M166.19,329.21c-2,0-3.77-.43-5.32-1.31-1.55-.88-2.77-2.08-3.67-3.62-.9-1.54-1.35-3.28-1.35-5.23s.45-3.72,1.35-5.25c.9-1.52,2.12-2.72,3.67-3.58,1.55-.86,3.32-1.29,5.32-1.29s3.74.43,5.31,1.29c1.56.86,2.79,2.05,3.67,3.56.89,1.51,1.33,3.27,1.33,5.27s-.44,3.73-1.33,5.25c-.89,1.52-2.11,2.72-3.67,3.6-1.56.88-3.33,1.31-5.31,1.31M166.19,326.06c1.27,0,2.42-.29,3.43-.86,1.01-.57,1.81-1.39,2.38-2.46.57-1.06.86-2.29.86-3.69s-.29-2.65-.86-3.69c-.57-1.04-1.37-1.84-2.38-2.42-1.01-.57-2.16-.86-3.43-.86s-2.41.29-3.41.86c-1,.58-1.8,1.38-2.4,2.42-.6,1.04-.9,2.27-.9,3.69s.3,2.63.9,3.69c.6,1.06,1.4,1.88,2.4,2.46,1,.57,2.14.86,3.41.86" fill="#f6f6f6"/>
        <polygon points="185.38 328.99 176.69 309.12 180.44 309.12 188.16 327.11 186.36 327.11 194.23 309.12 197.75 309.12 189.06 328.99 185.38 328.99" fill="#f6f6f6"/>
        <path d="M205.55,329.21c-1.48,0-2.77-.25-3.88-.75-1.11-.5-1.97-1.19-2.57-2.08-.6-.89-.9-1.89-.9-3.01s.25-2.05.77-2.93c.51-.87,1.35-1.57,2.51-2.1,1.16-.53,2.73-.79,4.7-.79h6.3v2.59h-6.15c-1.8,0-3.01.3-3.63.89-.63.6-.94,1.33-.94,2.17,0,.98.38,1.76,1.16,2.35.78.59,1.85.88,3.23.88s2.53-.3,3.54-.9c1.01-.6,1.74-1.48,2.19-2.62l.71,2.47c-.48,1.18-1.31,2.11-2.51,2.79-1.2.69-2.72,1.03-4.54,1.03M212.07,328.99v-4.2l-.19-.79v-7.16c0-1.52-.44-2.7-1.33-3.54-.89-.83-2.22-1.26-3.99-1.26-1.18,0-2.32.2-3.45.58-1.12.39-2.07.9-2.85,1.55l-1.5-2.7c1.03-.83,2.25-1.46,3.69-1.9,1.44-.43,2.94-.65,4.52-.65,2.72,0,4.82.66,6.3,1.99,1.47,1.33,2.21,3.35,2.21,6.07v12h-3.41Z" fill="#f6f6f6"/>
        <path d="M218.56,309.12h12.67v2.96h-12.67v-2.96ZM228.23,329.21c-2,0-3.55-.54-4.65-1.61-1.1-1.08-1.65-2.61-1.65-4.61v-18.22h3.6v18.07c0,1.08.27,1.9.81,2.47.54.57,1.31.86,2.31.86,1.12,0,2.06-.31,2.81-.94l1.12,2.59c-.55.47-1.21.82-1.97,1.05-.76.22-1.55.34-2.38.34" fill="#f6f6f6"/>
        <path d="M237.97,305.3c-.7,0-1.28-.23-1.74-.68-.46-.45-.69-1-.69-1.65s.23-1.24.69-1.69c.46-.45,1.04-.67,1.74-.67s1.28.22,1.74.65c.46.44.7.98.7,1.63s-.23,1.24-.68,1.7c-.45.47-1.04.7-1.76.7M236.17,309.13h3.6v19.87h-3.6v-19.87Z" fill="#f6f6f6"/>
        <path d="M256.49,308.93c1.62,0,3.05.31,4.29.94,1.24.63,2.21,1.57,2.9,2.85.7,1.28,1.05,2.89,1.05,4.84v11.43h-3.6v-11.02c0-1.92-.47-3.37-1.4-4.35-.94-.97-2.26-1.46-3.96-1.46-1.28,0-2.39.25-3.34.75-.95.5-1.68,1.24-2.19,2.21-.51.97-.77,2.19-.77,3.64v10.23h-3.6v-19.86h3.45v5.36l-.56-1.42c.65-1.3,1.65-2.31,3-3.04,1.35-.72,2.92-1.09,4.72-1.09" fill="#f6f6f6"/>
        <path d="M278.91,328.16c-1.92,0-3.64-.41-5.15-1.22-1.51-.81-2.71-1.95-3.6-3.39-.89-1.45-1.33-3.12-1.33-5.02s.44-3.6,1.33-5.04c.89-1.44,2.09-2.56,3.6-3.36,1.51-.8,3.23-1.2,5.15-1.2,1.7,0,3.25.35,4.65,1.03,1.4.69,2.52,1.74,3.35,3.17.84,1.42,1.26,3.22,1.26,5.4s-.42,3.94-1.26,5.36c-.83,1.42-1.95,2.49-3.35,3.2-1.4.71-2.95,1.07-4.65,1.07M279.36,336.49c-1.83,0-3.59-.26-5.31-.77-1.71-.51-3.1-1.24-4.18-2.2l1.73-2.77c.92.8,2.06,1.43,3.41,1.89,1.35.46,2.76.7,4.24.7,2.35,0,4.07-.55,5.17-1.65,1.1-1.1,1.65-2.78,1.65-5.02v-4.2l.37-3.94-.18-3.97v-5.43h3.41v17.17c0,3.5-.87,6.07-2.63,7.72-1.75,1.65-4.31,2.47-7.68,2.47M279.32,325.02c1.33,0,2.5-.28,3.52-.83,1.02-.55,1.83-1.31,2.42-2.29.59-.97.88-2.1.88-3.37s-.29-2.4-.88-3.37c-.59-.97-1.4-1.73-2.42-2.27-1.03-.53-2.2-.8-3.52-.8s-2.51.27-3.54.8c-1.04.54-1.85,1.29-2.44,2.27-.59.98-.88,2.1-.88,3.37s.29,2.4.88,3.37c.59.98,1.4,1.74,2.44,2.29,1.04.55,2.21.83,3.54.83" fill="#f6f6f6"/>
        <path d="M306.91,305.3c-.7,0-1.28-.23-1.74-.68-.46-.45-.69-1-.69-1.65s.23-1.24.69-1.69c.46-.45,1.04-.67,1.74-.67s1.28.22,1.75.65c.46.44.69.98.69,1.63s-.22,1.24-.67,1.7c-.45.47-1.04.7-1.77.7M305.11,309.13h3.6v19.87h-3.6v-19.87Z" fill="#f6f6f6"/>
        <path d="M325.43,308.93c1.62,0,3.05.31,4.29.94,1.24.63,2.21,1.57,2.9,2.85.7,1.28,1.05,2.89,1.05,4.84v11.43h-3.6v-11.02c0-1.92-.47-3.37-1.4-4.35-.94-.97-2.26-1.46-3.96-1.46-1.28,0-2.39.25-3.34.75-.95.5-1.68,1.24-2.19,2.21-.51.97-.77,2.19-.77,3.64v10.23h-3.6v-19.86h3.45v5.36l-.56-1.42c.65-1.3,1.65-2.31,3-3.04,1.35-.72,2.92-1.09,4.73-1.09" fill="#f6f6f6"/>
        <path d="M346.08,309.12h12.67v2.96h-12.67v-2.96ZM349.45,328.99v-21.63c0-1.95.57-3.5,1.71-4.66,1.14-1.16,2.75-1.75,4.85-1.75.77,0,1.52.1,2.23.28.71.19,1.32.48,1.82.88l-1.09,2.74c-.38-.3-.8-.53-1.28-.69-.47-.16-.97-.24-1.5-.24-1.05,0-1.85.3-2.4.88-.55.59-.82,1.46-.82,2.61v2.66l.08,1.65v17.28h-3.6Z" fill="#f6f6f6"/>
        <path d="M369.62,329.21c-2,0-3.77-.43-5.32-1.31-1.55-.88-2.77-2.08-3.67-3.62-.9-1.54-1.35-3.28-1.35-5.23s.45-3.72,1.35-5.25c.9-1.52,2.12-2.72,3.67-3.58,1.55-.86,3.32-1.29,5.32-1.29s3.74.43,5.3,1.29c1.56.86,2.79,2.05,3.67,3.56.89,1.51,1.33,3.27,1.33,5.27s-.45,3.73-1.33,5.25c-.89,1.52-2.11,2.72-3.67,3.6-1.56.88-3.33,1.31-5.3,1.31M369.62,326.06c1.27,0,2.42-.29,3.43-.86,1.01-.57,1.81-1.39,2.38-2.46.57-1.06.86-2.29.86-3.69s-.29-2.65-.86-3.69c-.57-1.04-1.37-1.84-2.38-2.42-1.01-.57-2.16-.86-3.43-.86s-2.41.29-3.41.86c-1,.58-1.8,1.38-2.4,2.42-.6,1.04-.9,2.27-.9,3.69s.3,2.63.9,3.69c.6,1.06,1.4,1.88,2.4,2.46,1,.57,2.13.86,3.41.86" fill="#f6f6f6"/>
        <path d="M392.67,329.21c-2,0-3.77-.43-5.32-1.31-1.55-.88-2.77-2.08-3.67-3.62-.9-1.54-1.35-3.28-1.35-5.23s.45-3.72,1.35-5.25c.9-1.52,2.12-2.72,3.67-3.58,1.55-.86,3.32-1.29,5.32-1.29s3.74.43,5.3,1.29c1.56.86,2.79,2.05,3.67,3.56.89,1.51,1.33,3.27,1.33,5.27s-.45,3.73-1.33,5.25c-.89,1.52-2.11,2.72-3.67,3.6-1.56.88-3.33,1.31-5.3,1.31M392.67,326.06c1.27,0,2.42-.29,3.43-.86,1.01-.57,1.81-1.39,2.38-2.46.57-1.06.86-2.29.86-3.69s-.29-2.65-.86-3.69c-.57-1.04-1.37-1.84-2.38-2.42-1.01-.57-2.16-.86-3.43-.86s-2.41.29-3.41.86c-1,.58-1.8,1.38-2.4,2.42-.6,1.04-.9,2.27-.9,3.69s.3,2.63.9,3.69c.6,1.06,1.4,1.88,2.4,2.46,1,.57,2.13.86,3.41.86" fill="#f6f6f6"/>
        <path d="M415.43,329.21c-1.92,0-3.64-.42-5.16-1.27-1.51-.85-2.71-2.04-3.58-3.56-.87-1.52-1.31-3.3-1.31-5.32s.44-3.79,1.31-5.3c.87-1.51,2.07-2.69,3.58-3.54,1.51-.85,3.23-1.27,5.16-1.27,1.67,0,3.19.38,4.54,1.12,1.35.75,2.43,1.87,3.24,3.37.81,1.5,1.22,3.37,1.22,5.62s-.39,4.13-1.18,5.62c-.79,1.5-1.86,2.63-3.21,3.39-1.35.76-2.89,1.14-4.61,1.14M415.73,326.06c1.25,0,2.38-.29,3.39-.86,1.01-.57,1.81-1.39,2.4-2.46.59-1.06.88-2.29.88-3.69s-.3-2.65-.88-3.69c-.59-1.04-1.39-1.84-2.4-2.42-1.01-.57-2.14-.86-3.39-.86s-2.41.29-3.41.86c-1,.58-1.8,1.38-2.4,2.42-.6,1.04-.9,2.27-.9,3.69s.3,2.63.9,3.69c.6,1.06,1.4,1.88,2.4,2.46,1,.57,2.13.86,3.41.86M422.51,328.99v-5.36l.22-4.61-.38-4.61v-13.23h3.6v27.81h-3.45Z" fill="#f6f6f6"/>
      </g>
      <path d="M546.63,254.01c0,1.78-.71,2.93-2.12,3.45l2.81,3.97h-3.05l-2.46-3.54h-1.71v3.54h-2.48v-11.1h4.21c1.72,0,2.95.3,3.69.87.74.59,1.11,1.52,1.11,2.81ZM543.64,255.32c.31-.27.46-.7.46-1.3s-.16-1.02-.48-1.24c-.32-.22-.87-.33-1.67-.33h-1.85v3.28h1.81c.85,0,1.43-.13,1.73-.42Z" fill="#f6f6f6"/>
      <path d="M542.48,265.62c-5.38,0-9.75-4.37-9.75-9.74s4.37-9.74,9.75-9.74,9.74,4.37,9.74,9.74-4.37,9.74-9.74,9.74ZM542.48,247.54c-4.6,0-8.35,3.74-8.35,8.34s3.74,8.34,8.35,8.34,8.34-3.74,8.34-8.34-3.74-8.34-8.34-8.34Z" fill="#f6f6f6"/>
    </g>
  </g>
</svg>